<?xml version="1.0" encoding="UTF-8" standalone="no"?>
<!-- Created with Inkscape (http://www.inkscape.org/) -->

<svg
   width="210mm"
   height="297mm"
   viewBox="0 0 210 297"
   version="1.1"
   id="svg5"
   inkscape:version="1.2.2 (732a01da63, 2022-12-09)"
   sodipodi:docname="jammin-logo-rough.svg"
   xmlns:inkscape="http://www.inkscape.org/namespaces/inkscape"
   xmlns:sodipodi="http://sodipodi.sourceforge.net/DTD/sodipodi-0.dtd"
   xmlns="http://www.w3.org/2000/svg"
   xmlns:svg="http://www.w3.org/2000/svg">
  <sodipodi:namedview
     id="namedview7"
     pagecolor="#ffffff"
     bordercolor="#000000"
     borderopacity="0.25"
     inkscape:showpageshadow="2"
     inkscape:pageopacity="0.0"
     inkscape:pagecheckerboard="0"
     inkscape:deskcolor="#d1d1d1"
     inkscape:document-units="mm"
     showgrid="false"
     showguides="false"
     inkscape:lockguides="false"
     inkscape:zoom="2.8284271"
     inkscape:cx="372.99883"
     inkscape:cy="305.82368"
     inkscape:window-width="1920"
     inkscape:window-height="1017"
     inkscape:window-x="1912"
     inkscape:window-y="99"
     inkscape:window-maximized="1"
     inkscape:current-layer="layer1">
    <sodipodi:guide
       position="30.16129,265.06452"
       orientation="1,0"
       id="guide391"
       inkscape:locked="false" />
    <sodipodi:guide
       position="50.032258,226.56452"
       orientation="1,0"
       id="guide393"
       inkscape:locked="false" />
    <sodipodi:guide
       position="77.532258,266.83871"
       orientation="0,-1"
       id="guide395"
       inkscape:locked="false" />
    <sodipodi:guide
       position="60.14516,246.96775"
       orientation="0,-1"
       id="guide397"
       inkscape:locked="false" />
    <sodipodi:guide
       position="104.95674,221.97744"
       orientation="1,0"
       id="guide401"
       inkscape:locked="false" />
    <sodipodi:guide
       position="103.83421,219.82593"
       orientation="0,-1"
       id="guide1255"
       inkscape:locked="false" />
    <sodipodi:guide
       position="85.873699,205.88782"
       orientation="1,0"
       id="guide1257"
       inkscape:locked="false" />
    <sodipodi:guide
       position="124.97523,249.76011"
       orientation="1,0"
       id="guide1259"
       inkscape:locked="false" />
    <sodipodi:guide
       position="91.018635,237.87999"
       orientation="0,-1"
       id="guide1261"
       inkscape:locked="false" />
    <sodipodi:guide
       position="73.432301,236.0091"
       orientation="0,-1"
       id="guide1989"
       inkscape:locked="false" />
    <sodipodi:guide
       position="97.099017,243.02493"
       orientation="0,-1"
       id="guide2056"
       inkscape:locked="false" />
    <sodipodi:guide
       position="100.74725,243.77328"
       orientation="0,-1"
       id="guide2058"
       inkscape:locked="false" />
    <sodipodi:guide
       position="98.034463,249.57302"
       orientation="1,0"
       id="guide2060"
       inkscape:locked="false" />
    <sodipodi:guide
       position="112.06611,240.03151"
       orientation="1,0"
       id="guide2064"
       inkscape:locked="false" />
    <inkscape:grid
       type="xygrid"
       id="grid2070" />
  </sodipodi:namedview>
  <defs
     id="defs2" />
  <g
     inkscape:label="Layer 1"
     inkscape:groupmode="layer"
     id="layer1">
    <path
       style="fill:#000000;fill-opacity:0;stroke:#000000;stroke-width:2.51972;stroke-dasharray:none;stroke-opacity:1"
       d="m 104.99109,60.733217 c 22.66495,-0.04403 22.38889,19.834646 22.38889,19.834646 0,0 0.25119,19.317212 -22.41376,19.273039 -22.664972,-0.04419 -21.849158,-19.332959 -21.849158,-19.332959 0,0 -0.790877,-19.73074 21.874028,-19.774726 z"
       id="path476-5"
       sodipodi:nodetypes="ccscc" />
    <path
       style="fill:#000000;fill-opacity:1;stroke:#000000;stroke-width:0.374008;stroke-opacity:1"
       d="m 91.903253,66.505897 c 0,0 -6.020175,8.361968 -7.733902,9.487596 -1.713722,1.125624 -2.669386,0.100435 -2.669386,0.100435 0,0 -4.706138,-3.576596 -3.898562,-8.683111 1.098385,-6.94533 5.154386,-8.465458 8.371388,-8.090164 3.080951,0.359423 6.075069,2.784559 6.810606,4.34205 0.735531,1.557493 -0.880143,2.843189 -0.880143,2.843189 z"
       id="path1231"
       sodipodi:nodetypes="cscssscc" />
    <path
       style="fill:#000000;fill-opacity:1;stroke:#000000;stroke-width:0.374579;stroke-opacity:1"
       d="m 118.07795,66.570512 c 0,0 6.03375,8.359256 7.75201,9.484037 1.71825,1.124777 2.67733,0.09902 2.67733,0.09902 0,0 4.72214,-3.579326 3.91488,-8.68572 -1.09797,-6.94516 -5.16531,-8.463213 -8.39214,-8.08618 -3.09038,0.361091 -6.09477,2.787976 -6.83334,4.345952 -0.73857,1.557981 0.88126,2.842891 0.88126,2.842891 z"
       id="path1231-1"
       sodipodi:nodetypes="cscssscc" />
    <path
       style="fill:#000000;fill-opacity:1;stroke:#000000;stroke-width:0.264583;stroke-opacity:1"
       d="m 85.780154,64.601531 c 0,0 6.361014,-10.851145 19.083046,-10.944688 12.72203,-0.09354 20.01848,11.131775 20.01848,11.038231 0,-0.09354 -1.87088,0 -1.87088,0 0,0 -6.17393,-8.699624 -18.05406,-8.886711 -11.880129,-0.187089 -17.399245,8.886711 -17.399245,8.886711 z"
       id="path1991" />
    <path
       style="fill:#000000;fill-opacity:1;stroke:#000000;stroke-width:2.364;stroke-dasharray:none;stroke-opacity:1"
       d="m 98.034461,56.930895 c 0,0 4.022409,0.748355 6.922279,0.748355 2.89988,0 7.20291,-0.841899 7.20291,-0.841899 0,0 -2.3386,-1.028988 -7.20291,-1.309621 -2.70829,-0.156247 -6.922279,1.403165 -6.922279,1.403165 z"
       id="path2068"
       sodipodi:nodetypes="cscsc" />
  </g>
</svg>
